<svg width="20" height="20" viewBox="0 0 20 20" fill="none" xmlns="http://www.w3.org/2000/svg">
<rect width="20" height="20" fill="#F5F5F5"/>
<g id="&#208;&#147;&#208;&#190;&#208;&#187;&#208;&#190;&#208;&#178;&#208;&#189;&#208;&#176; " clip-path="url(#clip0_1_493)">
<rect width="1600" height="2928" transform="translate(-421 -2148)" fill="white"/>
<g id="&#208;&#157;&#208;&#176;&#209;&#136;&#208;&#176; &#208;&#186;&#208;&#190;&#208;&#188;&#208;&#176;&#208;&#189;&#208;&#180;&#208;&#176;">
<rect id="Section bg" x="-421" y="-552" width="1600" height="708" fill="#F5F4FA"/>
<g id="team ">
<g id="team card 1">
<g id="card bg" filter="url(#filter0_ddd_1_493)">
<path d="M-206 -366H64V58C64 60.2091 62.2091 62 60 62H-202C-204.209 62 -206 60.2091 -206 58V-366Z" fill="white"/>
</g>
<g id="Social links">
<g id="Ellipse">
<path id="Ellipse_2" d="M32 9.99994C32 16.0751 29.5376 21.5751 25.5564 25.5563C21.5751 29.5375 16.0751 31.9999 10 31.9999C3.92487 31.9999 -1.57513 29.5375 -5.55635 25.5563C-9.53757 21.5751 -12 16.0751 -12 9.99994C-12 3.92481 -9.53757 -1.57519 -5.55635 -5.55641C-1.57513 -9.53763 3.92487 -12.0001 10 -12.0001C16.0751 -12.0001 21.5751 -9.53763 25.5564 -5.55641C29.5376 -1.57519 32 3.92481 32 9.99994Z" fill="white"/>
<g id="linkedin 1" clip-path="url(#clip1_1_493)">
<path id="Vector" d="M19.9951 20V19.9992H20.0001V12.6642C20.0001 9.07587 19.2276 6.31171 15.0326 6.31171C13.0159 6.31171 11.6626 7.41837 11.1101 8.46754H11.0517V6.64671H7.07422V19.9992H11.2159V13.3875C11.2159 11.6467 11.5459 9.96337 13.7017 9.96337C15.8259 9.96337 15.8576 11.95 15.8576 13.4992V20H19.9951Z" fill="#AFB1B8"/>
<path id="Vector_2" d="M0.329956 6.64746H4.47662V20H0.329956V6.64746Z" fill="#AFB1B8"/>
<path id="Vector_3" d="M2.40167 0C1.07583 0 0 1.07583 0 2.40167C0 3.7275 1.07583 4.82583 2.40167 4.82583C3.7275 4.82583 4.80333 3.7275 4.80333 2.40167C4.8025 1.07583 3.72667 0 2.40167 0V0Z" fill="#AFB1B8"/>
</g>
</g>
</g>
</g>
</g>
</g>
<g id="(&#208;&#191;&#208;&#190;&#209;&#150;&#208;&#189;&#209;&#130;&#208;&#181;&#209;&#128;&#208;&#184;)">
</g>
</g>
<defs>
<filter id="filter0_ddd_1_493" x="-209" y="-368" width="276" height="434" filterUnits="userSpaceOnUse" color-interpolation-filters="sRGB">
<feFlood flood-opacity="0" result="BackgroundImageFix"/>
<feColorMatrix in="SourceAlpha" type="matrix" values="0 0 0 0 0 0 0 0 0 0 0 0 0 0 0 0 0 0 127 0" result="hardAlpha"/>
<feOffset dy="2"/>
<feGaussianBlur stdDeviation="0.5"/>
<feColorMatrix type="matrix" values="0 0 0 0 0 0 0 0 0 0 0 0 0 0 0 0 0 0 0.2 0"/>
<feBlend mode="normal" in2="BackgroundImageFix" result="effect1_dropShadow_1_493"/>
<feColorMatrix in="SourceAlpha" type="matrix" values="0 0 0 0 0 0 0 0 0 0 0 0 0 0 0 0 0 0 127 0" result="hardAlpha"/>
<feOffset dy="1"/>
<feGaussianBlur stdDeviation="0.5"/>
<feColorMatrix type="matrix" values="0 0 0 0 0 0 0 0 0 0 0 0 0 0 0 0 0 0 0.14 0"/>
<feBlend mode="normal" in2="effect1_dropShadow_1_493" result="effect2_dropShadow_1_493"/>
<feColorMatrix in="SourceAlpha" type="matrix" values="0 0 0 0 0 0 0 0 0 0 0 0 0 0 0 0 0 0 127 0" result="hardAlpha"/>
<feOffset dy="1"/>
<feGaussianBlur stdDeviation="1.5"/>
<feColorMatrix type="matrix" values="0 0 0 0 0 0 0 0 0 0 0 0 0 0 0 0 0 0 0.12 0"/>
<feBlend mode="normal" in2="effect2_dropShadow_1_493" result="effect3_dropShadow_1_493"/>
<feBlend mode="normal" in="SourceGraphic" in2="effect3_dropShadow_1_493" result="shape"/>
</filter>
<clipPath id="clip0_1_493">
<rect width="1600" height="2928" fill="white" transform="translate(-421 -2148)"/>
</clipPath>
<clipPath id="clip1_1_493">
<rect width="20" height="20" fill="white"/>
</clipPath>
</defs>
</svg>
